<?xml version="1.0" standalone="no"?>
<!DOCTYPE svg PUBLIC "-//W3C//DTD SVG 20010904//EN"
 "http://www.w3.org/TR/2001/REC-SVG-20010904/DTD/svg10.dtd">
<svg version="1.0" xmlns="http://www.w3.org/2000/svg"
 width="200.000000pt" height="200.000000pt" viewBox="0 0 200.000000 200.000000"
 preserveAspectRatio="xMidYMid meet">

<g transform="translate(0.000000,200.000000) scale(0.100000,-0.100000)"
fill="#000000" stroke="none">
<path d="M1230 1880 c-11 -11 -20 -27 -20 -36 0 -13 -4 -11 -18 7 -41 49 -127
15 -120 -47 4 -31 3 -32 -28 -27 -56 9 -93 -53 -64 -108 9 -16 7 -19 -10 -19
-28 0 -60 -35 -60 -67 0 -15 9 -37 20 -49 l21 -21 -29 -6 c-42 -9 -62 -59 -39
-98 15 -28 15 -29 -3 -29 -48 0 -78 -74 -45 -110 14 -15 12 -16 -14 -12 -35 5
-81 -34 -81 -68 0 -28 43 -70 73 -70 50 0 83 62 57 109 -8 15 -6 17 15 13 16
-3 32 4 49 21 31 31 33 56 7 88 -18 24 -18 24 6 25 53 4 81 65 49 109 -13 18
-11 21 15 37 36 22 47 60 25 93 -16 24 -15 25 3 25 32 0 64 34 64 68 0 29 3
32 31 32 37 0 49 7 65 37 11 22 12 22 31 3 27 -27 66 -25 94 4 l24 23 5 -27
c12 -59 105 -63 127 -5 25 65 -50 122 -106 80 -24 -18 -34 -19 -34 -1 0 20
-39 46 -67 46 -13 0 -32 -9 -43 -20z"/>
<path d="M1456 1731 c-32 -35 13 -83 52 -55 26 18 28 37 6 58 -20 21 -37 20
-58 -3z"/>
<path d="M1475 1648 c-28 -16 -35 -28 -35 -65 0 -22 7 -37 20 -45 18 -12 17
-13 -13 -23 -38 -12 -56 -51 -41 -92 8 -25 6 -29 -21 -43 -43 -22 -55 -62 -28
-98 l21 -28 -29 -11 c-48 -19 -52 -103 -5 -124 l23 -11 -23 -24 c-13 -12 -24
-35 -24 -49 0 -26 31 -65 51 -65 7 0 0 -9 -15 -21 -50 -39 -24 -119 39 -119
37 0 62 19 71 56 7 29 -19 74 -43 74 -12 0 -9 6 11 26 34 35 33 69 -2 103 -29
26 -29 26 -9 42 29 22 27 77 -2 101 -23 18 -23 18 -2 18 50 0 79 73 44 112
-15 17 -15 18 4 18 35 0 66 33 66 70 0 22 -7 39 -22 52 l-23 18 24 0 c57 0 83
85 39 122 -26 21 -47 22 -76 6z"/>
<path d="M661 1124 c-24 -30 -25 -38 -10 -65 9 -18 7 -19 -15 -13 -24 6 -65
-9 -78 -30 -11 -16 -10 -70 2 -82 7 -7 1 -9 -19 -6 -54 8 -89 -55 -61 -109 9
-16 7 -21 -14 -30 -14 -7 -30 -25 -37 -41 -10 -25 -9 -33 8 -56 25 -33 76 -41
104 -16 23 21 25 76 3 94 -13 12 -11 15 16 26 36 16 54 53 40 89 -9 23 -7 25
19 25 46 0 78 50 61 95 -9 23 -8 25 9 15 39 -20 91 17 91 65 0 64 -79 90 -119
39z"/>
<path d="M1340 800 c-25 -25 -25 -60 0 -92 l20 -26 -29 -5 c-35 -7 -59 -56
-44 -90 9 -19 6 -23 -21 -32 -38 -12 -60 -53 -47 -87 8 -23 7 -25 -20 -25 -44
0 -72 -30 -66 -73 4 -35 4 -36 -28 -32 -39 5 -75 -25 -75 -62 0 -23 -3 -24
-35 -19 -37 6 -75 -16 -75 -44 0 -18 -7 -16 -30 7 -24 24 -57 26 -88 4 -21
-14 -22 -14 -22 5 0 35 -37 64 -75 59 -32 -4 -33 -3 -28 28 6 38 -23 74 -61
74 -23 0 -24 2 -13 29 15 42 -3 80 -43 88 l-31 6 21 21 c26 28 26 70 -1 97
-46 46 -135 -7 -113 -68 5 -16 23 -35 39 -43 29 -14 29 -16 13 -33 -37 -36 -8
-107 44 -110 21 -2 24 -5 17 -19 -26 -48 19 -115 70 -105 25 5 27 4 23 -23 -3
-21 3 -36 21 -54 29 -29 54 -33 82 -12 17 12 20 10 34 -18 32 -62 111 -57 130
8 5 17 10 23 10 14 1 -10 12 -25 26 -34 45 -30 105 3 105 57 0 27 2 29 21 19
46 -25 107 23 97 75 -5 22 -2 25 26 25 17 0 36 4 42 8 20 13 36 54 30 78 -5
20 -3 24 17 24 54 0 85 58 58 108 -7 14 -4 17 16 18 55 4 81 64 47 112 -9 13
-11 22 -4 22 20 0 60 49 60 75 0 34 -33 65 -70 65 -17 0 -39 -9 -50 -20z"/>
</g>
</svg>
