<?xml version="1.0" standalone="no"?>
<!DOCTYPE svg PUBLIC "-//W3C//DTD SVG 20010904//EN"
 "http://www.w3.org/TR/2001/REC-SVG-20010904/DTD/svg10.dtd">
<svg version="1.0" xmlns="http://www.w3.org/2000/svg"
 width="250.000000pt" height="250.000000pt" viewBox="0 0 250.000000 250.000000"
 preserveAspectRatio="xMidYMid meet">

<g transform="translate(0.000000,250.000000) scale(0.100000,-0.100000)"
fill="#000000" stroke="none">
<path d="M1138 2213 c-22 -6 -22 -7 3 -104 25 -98 23 -112 -49 -252 -54 -105
-56 -112 -60 -201 -3 -80 -1 -97 20 -136 27 -53 80 -87 120 -77 35 9 40 29 21
79 -8 24 -16 70 -16 103 0 54 6 71 59 175 l59 115 0 100 c0 88 -3 105 -23 138
-34 54 -79 75 -134 60z"/>
<path d="M775 2150 c-3 -5 -1 -28 5 -51 22 -80 15 -120 -36 -218 -39 -75 -49
-104 -52 -155 -7 -111 49 -193 126 -184 31 3 33 22 13 122 l-12 58 47 97 c40
79 49 108 52 163 5 78 -10 130 -45 158 -27 21 -87 27 -98 10z"/>
<path d="M1496 2151 c-3 -5 1 -41 10 -81 l17 -72 -54 -106 c-51 -101 -54 -111
-54 -182 0 -60 4 -82 22 -111 24 -38 59 -59 99 -59 33 0 39 19 24 80 -20 85
-15 117 32 208 42 82 43 87 43 178 0 89 -1 94 -29 123 -23 24 -38 31 -67 31
-21 0 -40 -4 -43 -9z"/>
<path d="M393 1138 c4 -94 13 -170 27 -223 40 -158 135 -317 247 -413 l54 -47
-276 -5 c-276 -5 -277 -5 -296 -29 -24 -30 -24 -56 1 -81 18 -18 33 -20 141
-20 117 0 122 -1 141 -25 l19 -25 689 0 689 0 19 25 c19 24 24 25 138 25 66 0
124 4 130 8 42 27 35 95 -11 112 -15 6 -140 10 -286 10 l-261 0 70 68 c59 57
161 194 174 234 3 7 24 2 64 -18 55 -26 68 -29 174 -29 96 0 122 3 160 21 57
27 113 84 142 143 28 57 30 166 4 224 -26 58 -90 122 -149 147 -76 33 -238 39
-1086 40 l-724 0 6 -142z m1747 -36 c43 -21 80 -75 80 -116 0 -45 -31 -96 -71
-118 -27 -15 -51 -18 -120 -16 -74 3 -91 7 -128 31 -35 23 -42 33 -37 50 3 12
9 49 12 82 10 114 0 105 122 105 82 0 115 -4 142 -18z"/>
</g>
</svg>
