<?xml version="1.0" standalone="no"?>
<!DOCTYPE svg PUBLIC "-//W3C//DTD SVG 20010904//EN"
 "http://www.w3.org/TR/2001/REC-SVG-20010904/DTD/svg10.dtd">
<svg version="1.0" xmlns="http://www.w3.org/2000/svg"
 width="1024.000000pt" height="1024.000000pt" viewBox="0 0 1024.000000 1024.000000"
 preserveAspectRatio="xMidYMid meet">

<g transform="translate(0.000000,1024.000000) scale(0.100000,-0.100000)"
fill="#000000" stroke="none">
<path d="M5315 8630 c-295 -63 -514 -329 -515 -623 0 -113 45 -270 100 -347
l21 -29 -28 -7 c-89 -20 -251 -70 -338 -105 -271 -108 -525 -304 -662 -510
l-48 -72 -5 -205 -5 -204 -125 -44 c-162 -57 -397 -173 -530 -262 -440 -295
-724 -742 -855 -1344 l-17 -78 -204 0 c-156 0 -204 3 -204 13 -1 6 -34 272
-74 589 -71 566 -73 577 -101 613 -50 67 -31 65 -685 65 -646 0 -632 1 -683
-59 -31 -37 -42 -86 -32 -138 6 -32 33 -65 165 -198 l159 -160 121 -930 c66
-511 129 -963 140 -1003 85 -313 312 -555 615 -659 134 -45 213 -53 569 -53
l331 -1 72 -147 c323 -656 948 -996 2018 -1097 229 -21 593 -35 940 -35 1282
0 1988 162 2492 573 l82 67 504 0 c554 0 605 4 757 59 249 91 465 303 564 552
64 165 61 93 61 1309 0 1022 -1 1110 -18 1174 -46 180 -125 322 -252 452 -133
136 -266 214 -454 267 -73 21 -98 21 -690 25 l-614 3 -61 48 c-192 151 -434
282 -671 362 l-110 37 -5 205 -5 204 -48 72 c-131 197 -373 388 -631 497 -88
37 -286 101 -369 119 l-28 6 21 29 c55 77 100 234 100 347 -1 205 -120 422
-293 531 -105 67 -195 94 -322 98 -60 2 -128 -1 -150 -6z m256 -339 c69 -33
112 -74 150 -143 31 -58 34 -70 34 -148 0 -78 -3 -90 -34 -148 -38 -70 -70
-100 -145 -140 -43 -22 -64 -26 -136 -26 -78 -1 -90 2 -148 33 -69 37 -109 80
-144 151 -32 66 -31 196 2 265 42 86 123 152 215 176 49 13 158 2 206 -20z
m294 -960 c208 -46 420 -132 585 -238 l75 -48 -543 -3 c-298 -1 -786 -1 -1084
0 l-543 3 95 59 c175 109 371 187 570 225 152 29 148 29 460 26 248 -2 298 -6
385 -24z m855 -691 l0 -80 -1280 0 -1280 0 0 80 0 80 1280 0 1280 0 0 -80z
m308 -446 c636 -211 1024 -623 1188 -1261 73 -287 98 -518 99 -913 0 -408 -30
-641 -116 -904 -285 -872 -1033 -1196 -2759 -1196 -1578 0 -2326 271 -2666
965 -136 278 -198 578 -210 1015 -23 815 149 1431 506 1813 212 226 453 372
815 493 l100 33 1453 1 1453 0 137 -46z m-5568 -446 c1 -7 34 -273 74 -591 78
-621 74 -602 140 -651 26 -20 43 -21 308 -24 l281 -3 -7 -62 c-14 -142 -19
-546 -7 -692 13 -157 42 -370 65 -467 l13 -58 -276 0 c-203 0 -294 4 -346 15
-214 45 -405 214 -474 423 -15 44 -59 349 -146 1020 -69 526 -128 969 -131
984 -3 15 -23 47 -45 72 l-41 46 296 0 c230 0 296 -3 296 -12z m7635 -3 c181
-38 349 -168 433 -335 74 -149 72 -102 72 -1250 0 -859 -3 -1036 -15 -1095
-37 -179 -170 -350 -335 -433 -134 -67 -172 -72 -592 -72 l-366 0 43 76 c24
41 60 113 81 160 l38 84 201 0 c146 0 217 4 258 15 173 45 307 178 352 350 22
87 23 1741 0 1828 -45 173 -178 307 -350 352 -45 11 -116 15 -301 15 l-242 0
-42 78 c-24 42 -67 114 -96 160 l-54 82 423 0 c331 0 437 -3 492 -15z m-209
-651 c15 -11 37 -33 48 -48 21 -27 21 -34 21 -886 0 -852 0 -859 -21 -886 -47
-64 -62 -69 -229 -72 l-153 -3 14 58 c53 227 79 540 71 873 -8 338 -47 630
-122 903 l-24 88 184 -3 c167 -3 186 -5 211 -24z"/>
<path d="M5375 6066 c-94 -41 -124 -168 -58 -247 42 -50 77 -59 220 -59 291 0
685 -31 913 -71 757 -133 1100 -451 1194 -1109 20 -145 27 -225 34 -447 8
-209 11 -219 76 -267 39 -29 133 -29 172 0 68 50 69 55 68 277 -7 1001 -351
1532 -1149 1774 -118 35 -333 82 -475 103 -346 51 -923 77 -995 46z"/>
<path d="M7745 3666 c-65 -29 -84 -63 -110 -196 -14 -67 -47 -190 -75 -272
-38 -112 -49 -159 -44 -183 15 -84 90 -141 172 -132 80 9 122 56 172 194 66
184 117 425 100 482 -14 51 -36 79 -80 101 -45 23 -92 25 -135 6z"/>
</g>
</svg>
